<?xml version="1.0" standalone="no"?>
<!DOCTYPE svg PUBLIC "-//W3C//DTD SVG 20010904//EN"
 "http://www.w3.org/TR/2001/REC-SVG-20010904/DTD/svg10.dtd">
<svg version="1.0" xmlns="http://www.w3.org/2000/svg"
 width="700.000000pt" height="700.000000pt" viewBox="0 0 700.000000 700.000000"
 preserveAspectRatio="xMidYMid meet">
<metadata>
Created by potrace 1.14, written by Peter Selinger 2001-2017
</metadata>
<g transform="translate(0.000000,700.000000) scale(0.100000,-0.100000)"
fill="#000000" stroke="none">
<path d="M1755 5259 c-963 -958 -1750 -1747 -1750 -1755 0 -17 3493 -3496
3505 -3492 5 2 792 783 1750 1736 1292 1288 1740 1740 1740 1756 0 17 -449
470 -1744 1760 -959 955 -1746 1736 -1748 1736 -2 0 -791 -783 -1753 -1741z
m3392 -4 c897 -893 1632 -1622 1635 -1620 2 2 35 -27 73 -65 l69 -69 -47 -41
c-25 -23 -49 -41 -52 -40 -3 0 -751 -742 -1662 -1649 l-1656 -1650 -1693 1686
c-932 927 -1694 1689 -1694 1692 0 3 378 384 839 845 462 462 837 844 834 849
-3 6 -2 7 4 4 5 -3 225 211 489 476 l479 482 -480 -475 -480 -475 474 477
c261 262 478 475 481 473 3 -2 172 160 375 360 204 200 372 364 375 364 3 1
740 -730 1637 -1624z m-4437 -1138 c0 -1 -141 -142 -312 -312 l-313 -310 310
313 c288 290 315 317 315 309z"/>
<path d="M2455 5466 c-577 -574 -1050 -1049 -1050 -1057 -1 -8 -6 -13 -11 -12
-15 3 -894 -880 -894 -897 0 -16 1201 -1213 1208 -1205 8 7 32 -16 27 -25 -5
-8 1709 -1715 1753 -1746 22 -15 25 -14 65 22 127 112 2826 2808 2820 2816 -3
6 -2 8 4 5 5 -3 42 27 82 67 l72 73 -1026 1019 c-565 560 -1032 1018 -1039
1016 -6 -2 -7 0 -3 4 7 7 -940 964 -953 964 -3 0 -477 -470 -1055 -1044z
m1939 34 c480 -479 876 -867 880 -863 4 5 6 1 4 -7 -1 -8 4 -14 12 -15 8 0 15
-7 15 -15 1 -8 7 -14 14 -12 7 1 10 -1 7 -6 -7 -12 668 -684 679 -675 4 4 5 3
1 -4 -6 -12 10 -28 29 -28 6 0 10 -7 10 -15 1 -8 6 -14 13 -13 7 2 11 -2 9 -9
-1 -7 5 -12 13 -13 8 0 15 -7 15 -15 1 -8 7 -14 14 -12 7 1 10 -2 7 -6 -3 -5
4 -18 17 -28 21 -19 21 -19 7 1 -14 19 -14 19 3 6 9 -8 15 -16 12 -19 -9 -9
27 -42 39 -35 6 3 7 2 3 -2 -4 -5 38 -55 94 -111 l103 -103 -1085 -1077 c-596
-593 -1211 -1204 -1366 -1358 -155 -154 -280 -282 -278 -286 2 -4 -33 -43 -78
-88 l-82 -82 -205 205 c-113 113 -201 205 -195 205 5 0 -551 558 -1236 1239
l-1244 1239 963 964 c530 530 961 966 958 969 -3 3 200 209 452 459 251 250
363 359 247 243 -115 -117 -205 -213 -200 -213 6 0 111 101 235 225 124 124
229 225 234 225 5 0 401 -392 880 -870z m-294 415 c190 -190 343 -345 340
-345 -3 0 -160 155 -350 345 -190 190 -343 345 -340 345 3 0 160 -155 350
-345z m1275 -1375 c10 -11 16 -20 13 -20 -3 0 -13 9 -23 20 -10 11 -16 20 -13
20 3 0 13 -9 23 -20z m325 -325 c162 -162 293 -295 290 -295 -3 0 -138 133
-300 295 -162 162 -293 295 -290 295 3 0 138 -133 300 -295z m-4630 -248 c0
-1 -107 -108 -237 -237 l-238 -235 235 238 c218 220 240 242 240 234z m5380
-530 c0 -2 -15 -16 -32 -33 l-33 -29 29 33 c28 30 36 37 36 29z m-130 -130 c0
-1 -66 -67 -147 -147 l-148 -145 145 148 c134 137 150 152 150 144z m-310
-310 c0 -2 -19 -21 -42 -42 l-43 -40 40 43 c36 39 45 47 45 39z m-4055 -937
c55 -55 97 -100 95 -100 -3 0 -50 45 -105 100 -55 55 -97 100 -95 100 3 0 50
-45 105 -100z"/>
<path d="M2790 5673 l-245 -248 248 245 c229 228 252 250 244 250 -1 0 -112
-111 -247 -247z"/>
<path d="M3585 4990 c-174 -19 -345 -67 -512 -145 -530 -248 -905 -711 -1024
-1265 -32 -148 -33 -422 -2 -555 46 -194 121 -354 227 -483 64 -78 134 -148
141 -141 2 3 16 61 29 130 14 68 32 144 41 169 8 24 13 50 10 58 -2 7 -1 10 4
7 12 -7 24 31 15 46 -4 7 -3 9 4 5 6 -3 13 2 16 11 3 10 26 54 51 97 48 85 51
91 35 81 -16 -10 -11 1 7 16 15 12 16 12 8 -1 -8 -13 -7 -13 8 -1 20 16 23 36
5 25 -9 -5 -9 -3 1 9 7 9 16 15 20 12 4 -2 30 18 57 46 27 28 73 68 101 91 29
22 50 45 46 51 -3 6 -1 7 6 3 13 -9 44 12 36 24 -3 4 3 7 13 6 9 0 16 4 15 10
-1 7 5 11 15 10 9 0 17 4 17 11 0 6 4 15 9 20 5 5 6 2 1 -6 -5 -9 -3 -12 6 -9
8 3 14 10 14 15 0 6 4 15 9 20 5 5 6 2 1 -6 -5 -9 -3 -12 6 -9 8 3 14 10 14
15 0 6 4 15 9 20 5 5 6 2 1 -6 -5 -9 -3 -12 6 -9 8 3 14 10 14 15 0 6 4 15 9
20 5 5 6 2 1 -6 -5 -9 -3 -12 6 -9 8 3 14 10 14 15 0 6 4 15 9 20 5 5 6 2 1
-6 -5 -9 -3 -12 6 -9 8 3 13 11 11 17 -1 7 2 10 8 6 13 -8 52 13 45 25 -3 5 0
12 6 16 8 5 9 3 4 -6 -5 -8 -3 -11 6 -8 8 3 13 10 12 16 -1 5 5 9 15 8 9 0 16
5 14 12 -1 8 2 11 8 7 14 -9 52 14 44 27 -4 7 -3 8 4 4 16 -10 54 12 46 26 -4
7 -3 8 4 4 11 -7 184 96 462 273 417 267 533 382 585 581 20 79 30 259 20 364
l-7 78 -71 33 c-100 46 -181 72 -279 89 -106 19 -358 27 -463 16z m-985 -2020
c-6 -11 -13 -20 -16 -20 -2 0 0 9 6 20 6 11 13 20 16 20 2 0 0 -9 -6 -20z
m-47 -85 c-15 -30 -29 -53 -31 -51 -4 5 46 106 53 106 3 0 -7 -25 -22 -55z"/>
<path d="M4606 4702 c-3 -5 -10 -60 -16 -123 -6 -63 -20 -150 -32 -194 -11
-44 -21 -90 -22 -102 0 -11 -5 -19 -10 -15 -5 3 -6 -2 -3 -12 4 -9 3 -15 -1
-12 -11 7 -44 -62 -36 -75 3 -5 0 -8 -7 -7 -6 2 -14 -3 -17 -11 -3 -9 0 -11 8
-6 9 6 11 4 6 -4 -5 -7 -11 -10 -14 -7 -7 7 -32 -13 -32 -26 0 -6 8 -4 18 3 9
7 6 1 -7 -14 -27 -30 -41 -37 -20 -9 11 14 -88 -75 -151 -136 -13 -13 -13 -14
0 -7 10 6 8 1 -4 -13 -21 -25 -36 -31 -16 -7 8 9 9 15 2 15 -11 0 -27 -19 -27
-32 0 -3 -4 -10 -9 -15 -5 -5 -6 -3 -2 5 4 6 3 12 -3 12 -10 0 -26 -19 -26
-32 0 -3 -4 -10 -9 -15 -5 -5 -6 -2 -1 6 5 9 3 12 -6 9 -8 -3 -14 -10 -14 -15
0 -6 -4 -15 -9 -20 -5 -5 -6 -3 -2 5 4 6 3 12 -2 12 -13 0 -33 -25 -26 -32 3
-3 -3 -5 -13 -4 -10 0 -17 -4 -16 -10 1 -7 -5 -11 -15 -10 -9 0 -16 -4 -15
-10 1 -7 -5 -11 -15 -10 -9 0 -16 -5 -14 -12 1 -8 -2 -11 -8 -7 -12 8 -52 -13
-45 -24 2 -5 -3 -8 -13 -7 -9 0 -16 -4 -15 -10 1 -7 -5 -11 -15 -10 -9 0 -16
-5 -14 -12 1 -8 -2 -11 -8 -7 -14 9 -52 -14 -44 -27 4 -7 3 -8 -4 -4 -13 8
-56 -17 -46 -26 3 -3 -3 -5 -13 -5 -10 1 -17 -4 -15 -11 1 -8 -2 -11 -8 -7
-23 14 -633 -377 -817 -524 -131 -105 -183 -164 -242 -281 -58 -115 -76 -167
-95 -285 -24 -144 -29 -230 -17 -254 13 -23 113 -77 217 -116 165 -62 442 -90
640 -65 672 84 1270 574 1483 1216 162 486 70 981 -242 1311 -27 29 -53 50
-57 48 -4 -3 -14 3 -21 13 -13 16 -12 16 6 2 20 -15 20 -14 1 8 -21 25 -23 25
-30 14z m-196 -645 c0 -2 -12 -14 -27 -28 l-28 -24 24 28 c23 25 31 32 31 24z
m-60 -50 c0 -2 -15 -16 -32 -33 l-33 -29 29 33 c28 30 36 37 36 29z"/>
<path d="M3270 857 c91 -93 182 -182 203 -199 l39 -31 76 79 77 79 -78 -75
-77 -75 -103 100 c-232 227 -292 280 -137 122z"/>
<path d="M6837 3570 l63 -65 -42 -43 c-24 -23 -40 -42 -37 -42 2 0 24 19 47
43 l42 43 -68 64 -67 65 62 -65z"/>
</g>
</svg>
